<?xml version="1.0" standalone="no"?>
<!DOCTYPE svg PUBLIC "-//W3C//DTD SVG 1.1//EN" "http://www.w3.org/Graphics/SVG/1.1/DTD/svg11.dtd">
<svg xmlns="http://www.w3.org/2000/svg" version="1.1" width="22" height="32" viewBox="0 0 22 32">
<title>lightbulb-regular</title>
<path fill="#fffef3" d="M11 5c-3.309 0-6 2.691-6 6 0 0.553 0.447 1 1 1s1-0.447 1-1c0-2.206 1.795-4 4-4 0.553 0 1-0.447 1-1s-0.447-1-1-1zM6.004 28.698c0 0.197 0.058 0.389 0.168 0.552l1.532 2.303c0.186 0.279 0.498 0.446 0.833 0.446h4.928c0.335 0 0.648-0.168 0.832-0.446l1.532-2.303c0.109-0.164 0.167-0.356 0.168-0.552l0.003-2.699h-9.998l0.003 2.699zM11 0c-6.393 0-11 5.186-11 11 0 2.773 1.028 5.303 2.723 7.236 1.040 1.187 2.671 3.675 3.276 5.76v0.004h3v-0.008c-0.001-0.298-0.045-0.594-0.134-0.879-0.349-1.113-1.426-4.048-3.886-6.854-1.284-1.464-1.97-3.322-1.976-5.259-0.013-4.603 3.729-8 7.997-8 4.411 0 8 3.589 8 8 0 1.936-0.703 3.803-1.978 5.259-2.444 2.788-3.526 5.717-3.881 6.841-0.088 0.267-0.138 0.574-0.139 0.894v0.006h3v-0.003c0.605-2.086 2.236-4.574 3.276-5.76 1.694-1.934 2.722-4.464 2.722-7.237 0-6.075-4.925-11-11-11z"/>
</svg>